<svg width="152" height="28" viewBox="0 0 152 28" fill="none" xmlns="http://www.w3.org/2000/svg">
<path fill-rule="evenodd" clip-rule="evenodd" d="M11.8654 4.60747C11.4139 5.08849 11.1116 5.78909 10.943 6.58309C10.5717 8.33194 9.18632 9.74938 7.44964 10.1301C6.57452 10.322 5.76662 10.6736 5.19339 11.1872C4.66885 11.6572 4.2707 12.3176 4.22326 13.3743C4.1575 14.839 4.68024 15.5274 5.2251 15.9268C5.8817 16.408 6.79373 16.6102 7.50644 16.6102V20.4068C6.26602 20.4068 4.50618 20.0869 3.02606 19.0021C1.4342 17.8353 0.355383 15.9135 0.477124 13.2019C0.572406 11.0797 1.45324 9.46847 2.70818 8.34408C3.91442 7.26332 5.38647 6.69784 6.65599 6.41952C6.94346 6.35649 7.21284 6.08622 7.27678 5.78511C7.528 4.60205 8.05105 3.15975 9.14701 1.99214C10.2954 0.768669 11.9317 0 14.0689 0C16.6803 0 18.7121 0.776124 19.9703 2.53474C21.125 4.14884 21.3346 6.22085 21.3346 8.0678V14.4746C21.3346 17.3213 18.901 20.4068 14.0689 20.4068V16.6102C17.1119 16.6102 17.5846 14.9499 17.5846 14.4746V8.0678C17.5846 6.35542 17.3488 5.34269 16.9332 4.76187C16.6211 4.32557 15.9576 3.79661 14.0689 3.79661C12.8978 3.79661 12.2644 4.18231 11.8654 4.60747Z" fill="#1D4ED8"/>
<path fill-rule="evenodd" clip-rule="evenodd" d="M18.3754 23.3925C18.8269 22.9115 19.1291 22.2109 19.2977 21.4169C19.6691 19.6681 21.0544 18.2506 22.7911 17.8699C23.6662 17.678 24.4741 17.3264 25.0473 16.8128C25.5719 16.3428 25.97 15.6824 26.0175 14.6257C26.0832 13.161 25.5605 12.4726 25.0156 12.0732C24.359 11.592 23.447 11.3898 22.7343 11.3898V7.59322C23.9747 7.59322 25.7345 7.91309 27.2147 8.99794C28.8065 10.1647 29.8853 12.0865 29.7636 14.7981C29.6683 16.9203 28.7875 18.5315 27.5325 19.6559C26.3263 20.7367 24.8543 21.3022 23.5847 21.5805C23.2973 21.6435 23.0279 21.9138 22.9639 22.2149C22.7127 23.398 22.1897 24.8402 21.0937 26.0079C19.9453 27.2313 18.3091 28 16.1718 28C13.5604 28 11.5286 27.2239 10.2705 25.4653C9.11569 23.8512 8.90615 21.7791 8.90615 19.9322V13.5254C8.90615 10.6787 11.3398 7.59322 16.1718 7.59322V11.3898C13.1288 11.3898 12.6562 13.0501 12.6562 13.5254V19.9322C12.6562 21.6446 12.8919 22.6573 13.3075 23.2381C13.6196 23.6744 14.2831 24.2034 16.1718 24.2034C17.343 24.2034 17.9763 23.8177 18.3754 23.3925Z" fill="#4ADE80"/>
<path fill-rule="evenodd" clip-rule="evenodd" d="M76.1697 19.9752C76.1697 20.1175 76.2853 20.2328 76.4279 20.2328H78.7448C79.0958 20.2328 79.3803 19.9489 79.3803 19.5987V3.48158C79.3803 3.13136 79.0958 2.84746 78.7448 2.84746H76.631C76.28 2.84746 75.9955 3.13136 75.9955 3.48158V8.41078C75.0996 7.91406 74.0792 7.61602 72.9094 7.61602C69.4002 7.61602 66.4884 10.5219 66.4884 14.0238C66.4884 17.5257 69.4002 20.4315 72.9094 20.4315C74.0215 20.4315 74.9682 20.1381 75.7811 19.7403C75.9578 19.6539 76.1697 19.7788 76.1697 19.9752ZM69.8482 14.0238C69.8482 12.2852 71.1922 10.9441 72.9094 10.9441C74.6267 10.9441 75.9706 12.2852 75.9706 14.0238C75.9706 15.7623 74.6267 17.1035 72.9094 17.1035C71.1922 17.1035 69.8482 15.7623 69.8482 14.0238Z" fill="#0F172A"/>
<path d="M34.8356 20.2328C34.4847 20.2328 34.2002 19.9489 34.2002 19.5987V8.44883C34.2002 8.09862 34.4847 7.81471 34.8356 7.81471H37.1538C37.2407 7.81471 37.3112 7.88504 37.3112 7.97179C37.3112 8.09653 37.4507 8.17286 37.5606 8.11328C38.1033 7.81884 38.8066 7.61602 39.7502 7.61602C41.1411 7.61602 42.2745 7.94653 43.1819 8.54439C43.4378 8.71303 43.7755 8.71023 44.0303 8.53981C44.9432 7.92924 46.0935 7.61602 47.4654 7.61602C50.9746 7.61602 53.0154 9.60292 53.0154 13.1048V19.5987C53.0154 19.9489 52.7309 20.2328 52.38 20.2328H50.2661C49.9152 20.2328 49.6307 19.9489 49.6307 19.5987V13.1545C49.6307 11.9624 48.66 10.9938 47.4654 10.9938C46.2957 10.9938 45.3002 11.8382 45.3002 13.0055V19.5987C45.3002 19.9489 45.0157 20.2328 44.6647 20.2328H42.5509C42.1999 20.2328 41.9154 19.9489 41.9154 19.5987V13.1545C41.9154 11.9624 40.9448 10.9938 39.7502 10.9938C38.5805 10.9938 37.6596 11.8382 37.5849 13.0055V19.5987C37.5849 19.9489 37.3004 20.2328 36.9495 20.2328H34.8356Z" fill="#0F172A"/>
<path fill-rule="evenodd" clip-rule="evenodd" d="M57.5078 15.3807C57.9115 16.549 59.0842 17.3518 60.5645 17.3518C61.6059 17.3518 62.4555 17.0735 63.376 16.6334C63.6847 16.4858 64.0582 16.5939 64.227 16.8911L65.0113 18.2714C65.1716 18.5535 65.0938 18.9127 64.8221 19.0904C63.3619 20.0457 62.0863 20.4315 60.241 20.4315C56.5078 20.4315 53.795 17.7244 53.795 13.9989C53.795 10.4722 56.5327 7.64086 60.0667 7.64086C63.775 7.64086 65.7661 10.1742 65.7661 13.7506C65.7661 14.06 65.7573 14.3257 65.7398 14.5944C65.7186 14.9195 65.4428 15.1662 65.1163 15.1662H57.5531C57.5288 15.1662 57.5105 15.178 57.4981 15.1987C57.4656 15.2526 57.4873 15.3212 57.5078 15.3807ZM61.784 11.267C61.3858 10.8696 60.8632 10.5964 59.9423 10.5964C59.2703 10.5964 58.5984 10.9192 58.1504 11.3663C57.6526 11.863 57.4286 12.4343 57.4286 12.6081C57.4286 12.6578 57.4535 12.6826 57.5282 12.6826H62.232C62.3066 12.6826 62.3315 12.6578 62.3315 12.6329C62.3315 12.2852 62.1822 11.6643 61.784 11.267Z" fill="#0F172A"/>
<path d="M81.9304 20.2328C81.5795 20.2328 81.295 19.9489 81.295 19.5987V8.42399C81.295 8.07378 81.5795 7.78988 81.9304 7.78988H84.0443C84.3953 7.78988 84.6798 8.07378 84.6798 8.42399V19.5987C84.6798 19.9489 84.3953 20.2328 84.0443 20.2328H81.9304Z" fill="#0F172A"/>
<path d="M83.0123 6.79643C82.0416 6.79643 81.295 6.05134 81.295 5.08272C81.295 4.18862 82.0416 3.39386 83.0123 3.39386C83.9082 3.39386 84.7046 4.18862 84.7046 5.08272C84.7046 6.05134 83.9082 6.79643 83.0123 6.79643Z" fill="#0F172A"/>
<path fill-rule="evenodd" clip-rule="evenodd" d="M89.8341 20.0239C89.8341 20.153 89.7292 20.2577 89.5998 20.2577H87.259C86.908 20.2577 86.6235 19.9738 86.6235 19.6236V3.48158C86.6235 3.13136 86.908 2.84746 87.259 2.84746H89.3728C89.7238 2.84746 90.0083 3.13136 90.0083 3.48158V8.43562C90.9042 7.93889 91.9246 7.64086 93.0944 7.64086C96.6036 7.64086 99.5154 10.5467 99.5154 14.0486C99.5154 17.5505 96.6036 20.4564 93.0944 20.4564C92.0864 20.4564 91.059 20.2061 90.1823 19.8072C90.022 19.7342 89.8341 19.848 89.8341 20.0239ZM93.0944 17.1283C94.8116 17.1283 96.1556 15.7872 96.1556 14.0486C96.1556 12.3101 94.8116 10.9689 93.0944 10.9689C91.3771 10.9689 90.0332 12.3101 90.0332 14.0486C90.0332 15.7872 91.3771 17.1283 93.0944 17.1283Z" fill="#0F172A"/>
<path d="M110.997 7.83955C111.348 7.83955 111.633 8.12345 111.633 8.47367V9.52175L111.633 9.52843V18.6806L111.633 18.687V19.6236C111.633 19.9738 111.348 20.2577 110.997 20.2577L110.057 20.2577L110.053 20.2577H108.945C108.828 20.2577 108.678 20.224 108.52 20.1889C108.267 20.1323 107.997 20.072 107.823 20.1415C107.333 20.3371 106.724 20.4564 106.083 20.4564C102.574 20.4564 100.533 18.4695 100.533 14.9676V8.47367C100.533 8.12345 100.817 7.83955 101.168 7.83955H103.282C103.633 7.83955 103.918 8.12345 103.918 8.47367V9.52175L103.918 9.52842L103.918 14.9179C103.918 16.11 104.888 17.0786 106.083 17.0786C107.253 17.0786 108.248 16.2342 108.248 15.0669V8.47367C108.248 8.12345 108.533 7.83955 108.884 7.83955H110.997Z" fill="#0F172A"/>
<path fill-rule="evenodd" clip-rule="evenodd" d="M122.34 20.0001C122.34 20.1423 122.456 20.2577 122.598 20.2577H124.915C125.266 20.2577 125.551 19.9738 125.551 19.6236V3.50641C125.551 3.1562 125.266 2.87229 124.915 2.87229H122.801C122.45 2.87229 122.166 3.1562 122.166 3.50641V8.43562C121.27 7.93889 120.25 7.64086 119.08 7.64086C115.571 7.64086 112.659 10.5467 112.659 14.0486C112.659 17.5505 115.571 20.4564 119.08 20.4564C120.192 20.4564 121.139 20.1629 121.951 19.7652C122.128 19.6787 122.34 19.8037 122.34 20.0001ZM116.019 14.0486C116.019 12.3101 117.363 10.9689 119.08 10.9689C120.797 10.9689 122.141 12.3101 122.141 14.0486C122.141 15.7872 120.797 17.1283 119.08 17.1283C117.363 17.1283 116.019 15.7872 116.019 14.0486Z" fill="#0F172A"/>
<path fill-rule="evenodd" clip-rule="evenodd" d="M136.564 20.2577C136.421 20.2577 136.306 20.1423 136.306 20.0001C136.306 19.8037 136.094 19.6787 135.917 19.7652C135.104 20.1629 134.157 20.4564 133.045 20.4564C129.536 20.4564 126.624 17.5505 126.624 14.0486C126.624 10.5467 129.536 7.64086 133.045 7.64086C134.215 7.64086 135.235 7.93889 136.131 8.43562V3.50641C136.131 3.1562 136.416 2.87229 136.767 2.87229H138.881C139.232 2.87229 139.516 3.1562 139.516 3.50641V19.6236C139.516 19.9738 139.232 20.2577 138.881 20.2577H136.564ZM133.045 10.9689C131.328 10.9689 129.984 12.3101 129.984 14.0486C129.984 15.7872 131.328 17.1283 133.045 17.1283C134.763 17.1283 136.107 15.7872 136.107 14.0486C136.107 12.3101 134.763 10.9689 133.045 10.9689Z" fill="#0F172A"/>
<path d="M151.365 7.65618C151.716 7.65618 152 7.94009 152 8.2903V20.0743H151.994C151.623 22.5844 149.759 25.1525 146.066 25.1525C144.693 25.1525 143.356 24.678 142.296 23.895C142.012 23.6851 141.997 23.2776 142.239 23.0198L143.426 21.7511C143.652 21.5098 144.023 21.4861 144.304 21.6611C144.823 21.9848 145.465 22.2515 146.161 22.2515C147.679 22.2515 148.541 21.1982 148.839 19.7964V19.6024C148.317 19.9998 147.421 20.273 146.45 20.273C142.941 20.273 140.9 18.2861 140.9 14.7842V8.2903C140.9 7.94009 141.185 7.65618 141.536 7.65618H143.65C144 7.65618 144.285 7.94009 144.285 8.2903V14.7345C144.285 15.9267 145.256 16.8953 146.45 16.8953C147.62 16.8953 148.615 16.0508 148.615 14.8835V8.2903C148.615 7.94009 148.9 7.65618 149.251 7.65618H151.365Z" fill="#0F172A"/>
</svg>
